<?xml version="1.0" standalone="no"?>
<!DOCTYPE svg PUBLIC "-//W3C//DTD SVG 20010904//EN"
 "http://www.w3.org/TR/2001/REC-SVG-20010904/DTD/svg10.dtd">
<svg version="1.0" xmlns="http://www.w3.org/2000/svg"
 width="500.000000pt" height="500.000000pt" viewBox="0 0 500.000000 500.000000"
 preserveAspectRatio="xMidYMid meet">
<metadata>
Created by potrace 1.14, written by Peter Selinger 2001-2017
</metadata>
<g transform="translate(0.000000,500.000000) scale(0.100000,-0.100000)"
fill="#000000" stroke="none">
<path d="M2250 4989 c-573 -60 -1103 -311 -1511 -719 -212 -211 -347 -399
-479 -665 -137 -276 -215 -546 -248 -855 -9 -84 -9 -427 0 -505 56 -490 226
-907 526 -1295 92 -118 317 -340 440 -434 264 -201 577 -353 892 -435 63 -16
131 -32 150 -35 19 -3 44 -8 55 -10 126 -23 228 -31 430 -30 220 0 259 3 475
40 19 3 87 19 150 35 324 81 667 255 940 474 100 80 275 252 352 345 315 380
520 871 565 1355 21 213 5 544 -32 720 -2 6 -8 37 -15 70 -55 263 -194 592
-350 826 -199 298 -465 559 -770 753 -111 71 -358 188 -495 236 -142 49 -324
95 -438 110 -45 6 -93 13 -107 16 -46 10 -444 12 -530 3z m1060 -631 c48 -21
96 -72 110 -114 7 -20 13 -66 14 -102 l2 -67 199 -2 c110 -1 210 -2 223 -2 18
-1 -46 -70 -303 -327 l-326 -326 -271 271 c-148 149 -273 272 -277 272 -3 1
-224 3 -490 3 -331 2 -484 -1 -486 -8 -1 -6 -8 -29 -14 -51 -22 -82 -113 -145
-201 -139 -60 4 -105 26 -147 73 -42 46 -52 102 -49 262 2 116 5 130 29 171
29 50 62 76 118 92 25 8 321 11 935 10 794 0 903 -2 934 -16z m-1415 -1022
c127 -27 237 -100 290 -190 28 -48 52 -131 59 -201 2 -27 10 -65 17 -83 27
-76 -5 -226 -66 -308 -13 -16 -31 -48 -40 -69 -19 -48 -29 -39 143 -132 68
-38 142 -83 163 -102 l40 -33 26 26 c24 25 122 83 279 166 l62 33 -17 36 c-9
20 -30 59 -48 87 -65 100 -85 199 -58 290 9 31 18 79 21 106 9 110 46 192 118
261 150 144 438 162 619 40 101 -68 157 -165 172 -298 3 -33 12 -82 19 -110
25 -94 -5 -231 -64 -300 -10 -11 -27 -41 -38 -67 l-21 -47 124 -68 c159 -86
220 -142 274 -255 90 -188 78 -344 -32 -397 -40 -19 -169 -56 -232 -66 -16 -3
-52 -10 -80 -15 -149 -28 -274 -37 -459 -34 -88 2 -176 5 -195 8 -20 3 -61 8
-91 12 -88 9 -281 50 -335 72 -30 12 -57 17 -65 12 -24 -13 -168 -47 -265 -64
-188 -32 -291 -41 -435 -40 -118 0 -281 9 -325 18 -11 2 -40 7 -65 10 -25 3
-56 8 -70 11 -189 37 -238 56 -294 116 -30 32 -46 59 -47 77 -4 108 19 232 56
307 46 95 95 135 298 244 53 29 97 54 97 55 0 13 -35 82 -59 118 -16 24 -37
61 -46 83 -23 54 -29 183 -10 229 8 19 15 55 15 79 0 92 51 206 122 273 106
100 285 144 443 110z m891 -2300 c274 1 502 2 507 3 4 0 7 10 7 22 0 56 58
130 121 157 96 40 203 4 256 -86 27 -46 28 -50 28 -202 -1 -167 -7 -193 -60
-242 -42 -40 -51 -46 -86 -54 -19 -4 -432 -8 -919 -9 -967 -1 -948 -2 -1008
57 -47 46 -63 91 -65 185 l-2 83 -192 0 c-106 0 -193 2 -193 5 0 3 133 138
295 300 l296 294 258 -257 258 -258 499 2z"/>
<path d="M1463 4250 c-41 -17 -53 -59 -53 -190 l0 -122 30 -30 c27 -26 36 -30
67 -25 62 10 77 35 78 122 0 68 2 75 20 75 11 1 360 1 775 1 l755 1 3 -64 3
-63 -142 1 -141 1 186 -186 186 -186 180 180 c99 99 180 182 180 186 0 3 -59
5 -131 5 -72 -1 -133 3 -136 7 -3 5 -6 62 -7 128 -2 112 -3 120 -26 141 l-25
23 -890 2 c-501 1 -900 -2 -912 -7z"/>
<path d="M1695 3219 c-47 -9 -121 -42 -151 -66 -60 -50 -92 -123 -99 -219 -2
-33 -10 -76 -18 -98 -20 -53 -11 -111 28 -181 19 -33 47 -87 64 -121 36 -72
94 -135 153 -165 61 -32 166 -32 228 0 59 31 113 90 147 159 15 32 39 75 54
97 52 81 67 160 40 222 -9 21 -16 56 -15 78 2 56 -30 154 -63 190 -38 42 -83
72 -135 91 -49 17 -174 25 -233 13z"/>
<path d="M3120 3216 c-149 -32 -240 -141 -240 -286 0 -26 -7 -64 -15 -83 -27
-66 -12 -155 39 -221 12 -17 37 -61 55 -98 52 -111 160 -188 261 -188 102 0
204 74 265 193 21 39 53 101 71 136 37 70 41 107 20 173 -8 24 -16 74 -20 112
-6 71 -30 132 -69 174 -27 30 -95 70 -139 83 -53 15 -168 18 -228 5z"/>
<path d="M1385 2285 c-174 -97 -209 -126 -243 -199 -37 -79 -59 -224 -38 -250
25 -31 260 -89 426 -104 100 -9 428 -9 510 1 193 22 395 71 421 103 17 21 5
133 -22 214 -27 78 -94 150 -179 193 -30 15 -79 41 -109 58 -88 49 -145 79
-153 79 -4 0 -23 -14 -42 -30 -48 -43 -101 -62 -170 -62 -69 0 -125 20 -174
63 -18 16 -38 29 -45 29 -7 -1 -88 -43 -182 -95z"/>
<path d="M2825 2289 c-187 -104 -228 -142 -264 -242 -28 -82 -39 -190 -21
-212 19 -23 170 -66 320 -89 135 -22 473 -29 620 -13 178 19 403 76 419 106
17 30 -5 168 -39 244 -31 70 -74 107 -212 182 -68 38 -143 79 -167 93 l-44 24
-26 -21 c-111 -91 -256 -97 -358 -15 -23 19 -47 34 -55 33 -7 0 -85 -41 -173
-90z"/>
<path d="M1612 1227 c-83 -84 -152 -155 -152 -157 0 -3 47 -5 105 -5 62 1 109
-3 112 -9 4 -5 7 -66 7 -136 1 -117 3 -127 24 -150 l23 -25 905 0 906 0 24 28
c23 27 24 35 24 158 l0 131 -29 29 c-36 36 -75 38 -115 6 -25 -21 -29 -30 -32
-92 -1 -39 -3 -74 -4 -80 0 -7 -263 -9 -772 -8 l-773 1 0 74 0 73 105 1 c58 1
107 2 110 3 6 1 -303 311 -310 311 -3 0 -74 -69 -158 -153z"/>
</g>
</svg>
